<svg width="16" height="16" viewBox="0 0 16 16" fill="none" xmlns="http://www.w3.org/2000/svg">
<path fill-rule="evenodd" clip-rule="evenodd" d="M8.37467 3.33594C8.37467 3.12883 8.20678 2.96094 7.99967 2.96094C7.79257 2.96094 7.62467 3.12883 7.62467 3.33594V7.6276H3.33301C3.1259 7.6276 2.95801 7.7955 2.95801 8.0026C2.95801 8.20971 3.1259 8.3776 3.33301 8.3776H7.62467V12.6693C7.62467 12.8764 7.79257 13.0443 7.99967 13.0443C8.20678 13.0443 8.37467 12.8764 8.37467 12.6693V8.3776H12.6663C12.8734 8.3776 13.0413 8.20971 13.0413 8.0026C13.0413 7.7955 12.8734 7.6276 12.6663 7.6276H8.37467V3.33594Z" fill="#121212"/>
</svg>
