<svg width="81" height="24" viewBox="0 0 81 25" fill="none" xmlns="http://www.w3.org/2000/svg">
<path d="M8.90019 18.168C7.34819 18.168 5.91619 17.808 4.60419 17.088C3.30819 16.352 2.27619 15.336 1.50819 14.04C0.756188 12.728 0.380188 11.256 0.380188 9.624C0.380188 7.992 0.756188 6.528 1.50819 5.232C2.27619 3.936 3.30819 2.928 4.60419 2.208C5.91619 1.472 7.34819 1.104 8.90019 1.104C10.4682 1.104 11.9002 1.472 13.1962 2.208C14.5082 2.928 15.5402 3.936 16.2922 5.232C17.0442 6.528 17.4202 7.992 17.4202 9.624C17.4202 11.256 17.0442 12.728 16.2922 14.04C15.5402 15.336 14.5082 16.352 13.1962 17.088C11.9002 17.808 10.4682 18.168 8.90019 18.168ZM8.90019 15.792C10.0042 15.792 10.9882 15.544 11.8522 15.048C12.7162 14.536 13.3882 13.816 13.8682 12.888C14.3642 11.944 14.6122 10.856 14.6122 9.624C14.6122 8.392 14.3642 7.312 13.8682 6.384C13.3882 5.456 12.7162 4.744 11.8522 4.248C10.9882 3.752 10.0042 3.504 8.90019 3.504C7.79619 3.504 6.81219 3.752 5.94819 4.248C5.08419 4.744 4.40419 5.456 3.90819 6.384C3.42819 7.312 3.18819 8.392 3.18819 9.624C3.18819 10.856 3.42819 11.944 3.90819 12.888C4.40419 13.816 5.08419 14.536 5.94819 15.048C6.81219 15.544 7.79619 15.792 8.90019 15.792ZM24.9125 18.216C23.8725 18.216 22.9365 18.032 22.1045 17.664C21.2885 17.28 20.6405 16.768 20.1605 16.128C19.6805 15.472 19.4245 14.744 19.3925 13.944H22.2245C22.2725 14.504 22.5365 14.976 23.0165 15.36C23.5125 15.728 24.1285 15.912 24.8645 15.912C25.6325 15.912 26.2245 15.768 26.6405 15.48C27.0725 15.176 27.2885 14.792 27.2885 14.328C27.2885 13.832 27.0485 13.464 26.5685 13.224C26.1045 12.984 25.3605 12.72 24.3365 12.432C23.3445 12.16 22.5365 11.896 21.9125 11.64C21.2885 11.384 20.7445 10.992 20.2805 10.464C19.8325 9.936 19.6085 9.24 19.6085 8.376C19.6085 7.672 19.8165 7.032 20.2325 6.456C20.6485 5.864 21.2405 5.4 22.0085 5.064C22.7925 4.728 23.6885 4.56 24.6965 4.56C26.2005 4.56 27.4085 4.944 28.3205 5.712C29.2485 6.464 29.7445 7.496 29.8085 8.808H27.0725C27.0245 8.216 26.7845 7.744 26.3525 7.392C25.9205 7.04 25.3365 6.864 24.6005 6.864C23.8805 6.864 23.3285 7 22.9445 7.272C22.5605 7.544 22.3685 7.904 22.3685 8.352C22.3685 8.704 22.4965 9 22.7525 9.24C23.0085 9.48 23.3205 9.672 23.6885 9.816C24.0565 9.944 24.6005 10.112 25.3205 10.32C26.2805 10.576 27.0645 10.84 27.6725 11.112C28.2965 11.368 28.8325 11.752 29.2805 12.264C29.7285 12.776 29.9605 13.456 29.9765 14.304C29.9765 15.056 29.7685 15.728 29.3525 16.32C28.9365 16.912 28.3445 17.376 27.5765 17.712C26.8245 18.048 25.9365 18.216 24.9125 18.216ZM45.0528 11.064C45.0528 11.56 45.0208 12.008 44.9568 12.408H34.8528C34.9328 13.464 35.3248 14.312 36.0288 14.952C36.7328 15.592 37.5968 15.912 38.6208 15.912C40.0928 15.912 41.1328 15.296 41.7408 14.064H44.6928C44.2928 15.28 43.5648 16.28 42.5088 17.064C41.4688 17.832 40.1728 18.216 38.6208 18.216C37.3568 18.216 36.2208 17.936 35.2128 17.376C34.2208 16.8 33.4368 16 32.8608 14.976C32.3008 13.936 32.0208 12.736 32.0208 11.376C32.0208 10.016 32.2928 8.824 32.8368 7.8C33.3968 6.76 34.1728 5.96 35.1648 5.4C36.1728 4.84 37.3248 4.56 38.6208 4.56C39.8688 4.56 40.9808 4.832 41.9568 5.376C42.9328 5.92 43.6928 6.688 44.2368 7.68C44.7808 8.656 45.0528 9.784 45.0528 11.064ZM42.1968 10.2C42.1808 9.192 41.8208 8.384 41.1168 7.776C40.4128 7.168 39.5408 6.864 38.5008 6.864C37.5568 6.864 36.7488 7.168 36.0768 7.776C35.4048 8.368 35.0048 9.176 34.8768 10.2H42.1968ZM50.4813 0.24V18H47.7453V0.24H50.4813ZM65.9774 4.776L57.8654 24.216H55.0334L57.7214 17.784L52.5134 4.776H55.5614L59.2814 14.856L63.1454 4.776H65.9774ZM67.1302 11.328C67.1302 10 67.4022 8.824 67.9462 7.8C68.5062 6.776 69.2582 5.984 70.2022 5.424C71.1622 4.848 72.2182 4.56 73.3702 4.56C74.4102 4.56 75.3142 4.768 76.0822 5.184C76.8662 5.584 77.4902 6.088 77.9542 6.696V4.776H80.7142V18H77.9542V16.032C77.4902 16.656 76.8582 17.176 76.0582 17.592C75.2582 18.008 74.3462 18.216 73.3222 18.216C72.1862 18.216 71.1462 17.928 70.2022 17.352C69.2582 16.76 68.5062 15.944 67.9462 14.904C67.4022 13.848 67.1302 12.656 67.1302 11.328ZM77.9542 11.376C77.9542 10.464 77.7622 9.672 77.3782 9C77.0102 8.328 76.5222 7.816 75.9142 7.464C75.3062 7.112 74.6502 6.936 73.9462 6.936C73.2422 6.936 72.5862 7.112 71.9782 7.464C71.3702 7.8 70.8742 8.304 70.4902 8.976C70.1222 9.632 69.9382 10.416 69.9382 11.328C69.9382 12.24 70.1222 13.04 70.4902 13.728C70.8742 14.416 71.3702 14.944 71.9782 15.312C72.6022 15.664 73.2582 15.84 73.9462 15.84C74.6502 15.84 75.3062 15.664 75.9142 15.312C76.5222 14.96 77.0102 14.448 77.3782 13.776C77.7622 13.088 77.9542 12.288 77.9542 11.376Z" fill="white"/>
</svg>
