<svg xmlns="http://www.w3.org/2000/svg" viewBox="0 0 861.18 797.12"><defs><style>.a,.b,.c{fill:none;stroke:#000;stroke-width:19px;}.a,.b{stroke-linecap:round;}.a,.c{stroke-miterlimit:10;}.b{stroke-linejoin:round;}</style></defs><path class="a" d="M611.93,736.48l109-54.83s44.7-11.3,69.34,6.53S905.36,759,910.75,769.72s-.33,43.82-21.34,48.8S803,780.27,803,780.27" transform="translate(-501.67 -126.26)"/><path class="a" d="M901.7,812.9s144.84-19.15,152.46-15.15c21.46.4,27.82,37.5-11.5,50.57S850.91,892.18,842,890,724.22,838.39,712.6,842s-42,21.13-42,21.13" transform="translate(-501.67 -126.26)"/><rect class="b" x="509.11" y="774.29" width="160" height="94" transform="translate(556.31 -200.36) rotate(63.29)"/><path class="a" d="M1266.19,314.16l-89.37,83s-39.77,23.31-68.41,13.06S978.12,374.34,970,365.55s-11.89-42.18,6.89-52.82,93.65,12.64,93.65,12.64" transform="translate(-501.67 -126.26)"/><path class="c" d="M826.5,322.5c34.12-23.51,166.78-91.24,176-91.61s127.46,16.71,137.61,10,34.43-32,34.43-32" transform="translate(-501.67 -126.26)"/><rect class="b" x="1184.46" y="179.36" width="160" height="94" transform="translate(1457.67 1180.49) rotate(-132.9)"/><polyline class="a" points="266.86 553.29 266.86 427.24 529.83 427.24 529.83 670.95"/><polyline class="a" points="367.83 427.24 367.83 511.24 428.83 511.24 428.83 427.24"/><polyline class="c" points="471.83 196.24 260.83 196.24 260.83 344.24 584.83 344.24 584.83 277.06"/><circle class="c" cx="410.83" cy="270.24" r="48"/><path d="M912,427.92v-8.06c-4.63-.08-9.41-1.51-12.2-3.51l1.91-5.34a21.3,21.3,0,0,0,11.49,3.43c5.66,0,9.49-3.27,9.49-7.82,0-4.38-3.11-7.1-9-9.49-8.13-3.19-13.16-6.86-13.16-13.8,0-6.62,4.71-11.64,12.05-12.84v-8.05h4.94v7.73A21.21,21.21,0,0,1,927.9,373l-2,5.26a19.29,19.29,0,0,0-10-2.71c-6.14,0-8.46,3.67-8.46,6.86,0,4.14,3,6.22,9.89,9.09,8.22,3.35,12.37,7.5,12.37,14.59,0,6.31-4.39,12.21-12.61,13.56v8.3Z" transform="translate(-501.67 -126.26)"/></svg>