<svg width="33" height="32" viewBox="0 0 33 32" fill="none" xmlns="http://www.w3.org/2000/svg">
<path d="M27.4993 16V24C27.4993 26.9455 25.1115 29.3333 22.166 29.3333H11.4993C8.55383 29.3333 6.16602 26.9455 6.16602 24V16" stroke="#141718" stroke-width="2.5" stroke-linejoin="round"/>
<path d="M23.1916 2.66406H10.475C8.05182 2.66406 5.87281 4.32374 4.97288 6.85479L3.96223 9.69723C3.6563 10.5577 3.44483 11.4784 3.66797 12.3639C4.19643 14.4611 5.91093 15.9974 7.94439 15.9974C10.399 15.9974 12.3888 13.7588 12.3888 10.9974C12.3888 13.7588 14.3787 15.9974 16.8333 15.9974C19.2879 15.9974 21.2777 13.7588 21.2777 10.9974C21.2777 13.7588 23.2676 15.9974 25.7222 15.9974C27.7556 15.9974 29.4701 14.4611 29.9986 12.3639C30.2217 11.4784 30.0103 10.5577 29.7043 9.69723L28.6937 6.85479C27.7938 4.32374 25.6147 2.66406 23.1916 2.66406Z" stroke="#141718" stroke-width="2.5" stroke-linejoin="round"/>
<path d="M12.833 25.3359C12.833 23.1268 14.6239 21.3359 16.833 21.3359C19.0421 21.3359 20.833 23.1268 20.833 25.3359V29.3359H12.833V25.3359Z" stroke="#141718" stroke-width="2.5" stroke-linejoin="round"/>
</svg>
