<svg width="30" height="30" viewBox="0 0 30 30" fill="none" xmlns="http://www.w3.org/2000/svg">
<rect x="0.75" y="0.75" width="28.5" height="28.5" rx="14.25" fill="#141718"/>
<rect x="0.75" y="0.75" width="28.5" height="28.5" rx="14.25" stroke="white" stroke-width="1.5"/>
<path d="M11.2503 10.7226C11.0971 10.9524 11.1592 11.2628 11.389 11.416C11.6188 11.5692 11.9292 11.5071 12.0824 11.2774L11.2503 10.7226ZM12.6039 9.59373L13.0199 9.87108L13.0199 9.87108L12.6039 9.59373ZM17.3955 9.59373L17.8115 9.31638L17.3955 9.59373ZM17.917 11.2774C18.0702 11.5071 18.3806 11.5692 18.6104 11.416C18.8401 11.2628 18.9022 10.9524 18.749 10.7226L17.917 11.2774ZM16.4997 16C16.4997 16.8284 15.8281 17.5 14.9997 17.5V18.5C16.3804 18.5 17.4997 17.3807 17.4997 16H16.4997ZM14.9997 17.5C14.1712 17.5 13.4997 16.8284 13.4997 16H12.4997C12.4997 17.3807 13.619 18.5 14.9997 18.5V17.5ZM13.4997 16C13.4997 15.1716 14.1712 14.5 14.9997 14.5V13.5C13.619 13.5 12.4997 14.6193 12.4997 16H13.4997ZM14.9997 14.5C15.8281 14.5 16.4997 15.1716 16.4997 16H17.4997C17.4997 14.6193 16.3804 13.5 14.9997 13.5V14.5ZM12.0824 11.2774L13.0199 9.87108L12.1878 9.31638L11.2503 10.7226L12.0824 11.2774ZM13.7133 9.5H16.2861V8.5H13.7133V9.5ZM16.9795 9.87108L17.917 11.2774L18.749 10.7226L17.8115 9.31638L16.9795 9.87108ZM16.2861 9.5C16.5647 9.5 16.8249 9.63925 16.9795 9.87108L17.8115 9.31638C17.4715 8.80635 16.8991 8.5 16.2861 8.5V9.5ZM13.0199 9.87108C13.1744 9.63925 13.4346 9.5 13.7133 9.5V8.5C13.1003 8.5 12.5278 8.80635 12.1878 9.31638L13.0199 9.87108ZM10.9997 11.5H18.9997V10.5H10.9997V11.5ZM21.1663 13.6667V18.3333H22.1663V13.6667H21.1663ZM18.9997 20.5H10.9997V21.5H18.9997V20.5ZM8.83301 18.3333V13.6667H7.83301V18.3333H8.83301ZM10.9997 20.5C9.80306 20.5 8.83301 19.53 8.83301 18.3333H7.83301C7.83301 20.0822 9.25077 21.5 10.9997 21.5V20.5ZM21.1663 18.3333C21.1663 19.53 20.1963 20.5 18.9997 20.5V21.5C20.7486 21.5 22.1663 20.0822 22.1663 18.3333H21.1663ZM18.9997 11.5C20.1963 11.5 21.1663 12.47 21.1663 13.6667H22.1663C22.1663 11.9178 20.7486 10.5 18.9997 10.5V11.5ZM10.9997 10.5C9.25077 10.5 7.83301 11.9178 7.83301 13.6667H8.83301C8.83301 12.47 9.80306 11.5 10.9997 11.5V10.5Z" fill="#FEFEFE"/>
</svg>
